<?xml version="1.0" standalone="no"?>
<!DOCTYPE svg PUBLIC "-//W3C//DTD SVG 20010904//EN"
 "http://www.w3.org/TR/2001/REC-SVG-20010904/DTD/svg10.dtd">
<svg version="1.0" xmlns="http://www.w3.org/2000/svg"
 width="471.000000pt" height="497.000000pt" viewBox="0 0 471.000000 497.000000"
 preserveAspectRatio="xMidYMid meet">

<g transform="translate(0.000000,497.000000) scale(0.100000,-0.100000)"
fill="#000000" stroke="none">
<path d="M2100 4645 c-129 -29 -189 -69 -371 -248 -157 -153 -215 -225 -281
-346 -15 -28 -20 -30 -38 -21 -24 13 -25 24 -4 81 40 113 -25 240 -141 274
-213 64 -367 -194 -210 -351 66 -65 153 -78 242 -37 30 14 34 13 66 -11 33
-25 34 -29 39 -109 4 -60 14 -103 37 -160 60 -150 52 -157 -160 -157 l-160 0
-89 86 -89 86 6 44 c7 52 -11 85 -58 110 -93 48 -192 -71 -133 -161 19 -29 74
-49 112 -41 24 6 36 -3 107 -74 44 -45 92 -88 107 -96 20 -11 70 -14 201 -14
128 0 177 -3 185 -12 14 -19 34 -118 30 -153 l-3 -30 -318 -3 -318 -2 -34 26
c-47 35 -97 28 -126 -19 -24 -39 -18 -73 17 -104 33 -30 75 -29 112 2 27 22
39 25 111 25 45 0 81 -3 81 -6 0 -4 -34 -42 -75 -86 -42 -43 -83 -94 -92 -113
-10 -21 -27 -38 -40 -41 -33 -9 -73 -60 -73 -95 0 -113 148 -152 199 -52 17
33 13 71 -10 113 l-22 38 21 34 c11 18 61 73 111 121 l90 88 195 -3 c107 -2
197 -6 200 -9 3 -3 13 -46 21 -95 9 -49 18 -97 21 -106 5 -16 -2 -18 -62 -18
l-67 0 -86 -83 c-78 -76 -91 -85 -144 -96 -230 -50 -217 -374 16 -398 194 -20
301 221 155 352 l-41 38 62 58 c62 58 63 59 122 59 39 0 61 -4 63 -12 2 -7 16
-53 31 -103 15 -49 44 -128 66 -174 l39 -84 0 -213 0 -213 -27 -19 c-16 -11
-188 -115 -383 -232 -195 -117 -363 -219 -372 -228 -15 -12 -18 -32 -18 -98 0
-72 3 -85 19 -94 31 -16 2692 -14 2715 3 14 10 16 26 14 101 l-3 89 -275 164
c-151 90 -326 196 -387 234 l-113 70 0 196 0 197 54 110 c61 124 82 192 122
393 40 206 9 183 241 183 l197 0 88 -92 c79 -83 88 -95 83 -123 -7 -38 21 -95
55 -112 91 -46 194 41 156 131 -23 53 -51 71 -112 70 l-53 -2 -81 84 -82 83
94 90 c84 81 95 88 110 74 9 -8 34 -17 56 -20 34 -5 45 -1 66 20 56 56 18 147
-60 147 -34 0 -48 -11 -179 -140 l-142 -140 -192 0 -192 0 6 33 c3 17 16 97
30 176 14 80 30 150 35 155 7 7 93 13 220 16 l209 5 48 48 c40 39 55 47 85 47
53 0 85 18 103 57 21 43 13 76 -25 114 -69 69 -182 8 -166 -89 5 -32 1 -40
-38 -79 l-43 -43 -191 0 c-105 0 -193 4 -196 8 -3 5 -6 64 -7 133 l-1 124 44
3 c41 3 51 9 133 92 l88 89 47 -6 c84 -10 140 37 140 117 0 74 -49 120 -127
120 -73 0 -120 -60 -109 -138 l6 -46 -78 -78 c-77 -76 -79 -78 -128 -78 l-49
0 -45 71 c-56 88 -148 176 -237 225 -37 21 -102 69 -143 108 -88 83 -202 147
-315 176 -106 27 -234 33 -315 15z m315 -132 c146 -45 243 -119 326 -247 41
-62 99 -201 99 -236 0 -19 -4 -21 -32 -15 -65 13 -67 15 -84 73 -28 96 -83
199 -138 255 -54 54 -143 104 -272 152 -39 14 -80 32 -90 41 -17 14 -13 14 46
8 36 -3 101 -17 145 -31z m-102 -138 c80 -21 151 -59 198 -106 37 -37 119
-186 119 -215 0 -13 -95 -38 -110 -29 -4 3 -15 26 -24 51 -48 140 -179 258
-323 289 -18 3 -35 11 -38 16 -10 15 115 11 178 -6z m1247 -65 c11 -11 20 -29
20 -40 0 -21 -33 -60 -51 -60 -15 0 -53 21 -61 34 -21 31 12 86 52 86 11 0 29
-9 40 -20z m-2310 -35 c37 -19 50 -43 50 -90 0 -47 -14 -71 -52 -91 -88 -46
-183 57 -134 145 27 48 84 63 136 36z m946 -34 c68 -24 115 -59 155 -114 31
-43 57 -113 45 -124 -4 -4 -30 -7 -59 -8 -47 0 -53 2 -72 33 -73 120 -127 164
-246 202 -65 21 -71 25 -49 31 39 13 164 1 226 -20z m789 -122 c25 -34 45 -65
45 -70 0 -12 -35 -29 -59 -29 -12 0 -21 1 -21 3 0 9 -22 124 -26 140 -11 35
17 15 61 -44z m-935 -16 c43 -19 109 -78 99 -87 -3 -3 -37 4 -77 14 -117 31
-179 34 -309 15 -65 -9 -138 -15 -163 -13 l-45 3 62 32 c90 48 160 63 283 59
80 -2 116 -8 150 -23z m29 -185 c177 -41 322 -44 449 -8 91 25 166 24 285 -4
54 -13 65 -12 155 11 92 23 97 24 109 7 7 -10 12 -22 10 -28 -2 -5 -43 -23
-92 -40 -60 -21 -94 -39 -107 -57 -19 -25 -19 -26 13 -105 41 -104 51 -114
111 -114 57 0 56 1 31 -126 -10 -53 -19 -80 -24 -72 -5 7 -9 24 -9 39 0 41
-49 126 -97 168 -70 62 -175 90 -266 71 -70 -14 -140 -60 -183 -120 l-33 -47
-61 10 c-40 7 -77 6 -112 -1 -58 -12 -50 -17 -110 61 -17 21 -55 49 -95 69
-57 28 -77 32 -139 32 -61 -1 -84 -6 -138 -33 -73 -36 -108 -72 -144 -150 -28
-60 -33 -57 -51 28 -14 64 -6 74 46 59 46 -13 69 8 78 70 4 26 16 64 26 85 11
21 17 47 14 57 -8 24 -55 53 -136 84 -107 40 -93 51 76 60 55 3 114 10 130 15
55 17 126 11 264 -21z m1715 -44 c23 -22 20 -41 -9 -60 -24 -16 -27 -16 -45 1
-23 20 -26 45 -8 63 17 17 44 15 62 -4z m-2920 -50 c22 -21 20 -61 -3 -74 -28
-14 -38 -13 -61 10 -21 21 -18 46 8 68 21 16 37 15 56 -4z m729 -76 c33 -17 8
-65 -27 -52 -15 6 -46 53 -46 69 0 7 48 -4 73 -17z m1487 -1 c0 -22 -23 -46
-52 -52 -20 -5 -29 -2 -37 13 -15 28 -14 31 12 42 34 13 77 12 77 -3z m-1121
-197 c85 -24 151 -110 151 -195 0 -53 -35 -121 -83 -159 -48 -38 -143 -48
-198 -21 -106 54 -150 175 -100 273 24 47 45 66 101 91 50 23 79 25 129 11z
m805 -2 c107 -33 166 -168 117 -273 -36 -77 -95 -115 -180 -115 -145 0 -244
155 -181 285 45 94 140 134 244 103z m1076 -83 c0 -20 -5 -25 -24 -25 -13 0
-26 6 -29 13 -7 22 4 37 29 37 19 0 24 -5 24 -25z m-1480 -78 c20 -10 26 -23
33 -67 22 -157 131 -259 287 -268 101 -5 169 20 239 90 61 61 60 64 26 -127
-29 -161 -43 -209 -96 -320 -87 -184 -197 -305 -341 -374 -171 -82 -315 -71
-484 40 -177 115 -297 333 -359 651 -14 70 -25 139 -25 153 0 24 2 23 37 -16
109 -121 314 -132 439 -25 53 45 93 121 102 193 6 47 11 60 32 70 32 16 78 16
110 0z m-1572 -123 c3 -23 -18 -37 -43 -28 -16 6 -20 35 -8 48 14 14 48 1 51
-20z m3012 -262 c31 -25 21 -69 -17 -78 -20 -5 -31 -2 -45 16 -23 28 -23 35 2
60 25 25 32 25 60 2z m-2936 -88 c30 -30 13 -74 -29 -74 -60 0 -59 88 2 90 6
0 19 -7 27 -16z m437 -223 c21 -22 29 -39 29 -66 0 -51 -44 -95 -95 -95 -51 0
-95 44 -95 95 0 51 44 95 95 95 27 0 44 -8 66 -29z m574 -349 c64 -57 168
-120 250 -152 50 -20 79 -24 175 -24 97 0 124 3 175 23 86 34 183 92 243 146
41 37 52 43 53 28 0 -10 0 -76 -1 -146 -1 -147 5 -164 71 -197 26 -14 39 -27
37 -37 -2 -9 -64 -66 -138 -126 -221 -178 -246 -202 -265 -252 l-18 -45 -167
0 -168 0 -12 29 c-22 55 -55 88 -220 223 -225 185 -214 167 -143 214 l58 39 3
163 c1 89 5 162 8 162 3 0 30 -21 59 -48z m-107 -560 c92 -76 184 -151 205
-166 75 -57 84 -56 -463 -56 -440 0 -499 2 -494 15 4 8 65 50 138 92 72 43
196 117 276 165 80 48 151 88 158 88 8 0 89 -62 180 -138z m1463 0 c129 -77
255 -151 282 -166 98 -56 96 -56 -453 -56 -432 0 -499 2 -494 15 3 7 85 79
182 158 98 80 186 154 196 166 11 12 27 21 36 21 10 0 123 -62 251 -138z"/>
<path d="M2070 2854 c-111 -24 -197 -105 -207 -196 -6 -52 10 -71 57 -66 28 3
34 9 53 58 18 45 30 59 67 80 43 24 53 25 240 28 281 6 330 -9 376 -115 l24
-54 43 3 42 3 -1 40 c-2 109 -94 199 -229 224 -84 16 -385 13 -465 -5z"/>
<path d="M2126 2654 c-20 -20 -20 -48 0 -68 13 -13 44 -16 185 -16 98 0 179 4
190 10 21 12 25 41 9 71 -10 18 -23 19 -190 19 -149 0 -181 -3 -194 -16z"/>
<path d="M3320 2875 c-73 -33 -110 -93 -110 -180 0 -134 114 -228 238 -196 26
6 52 13 58 14 6 1 52 -37 102 -85 70 -66 92 -93 92 -113 0 -35 42 -75 78 -75
76 0 113 94 55 140 -20 15 -38 20 -62 18 -31 -4 -41 3 -119 77 l-85 81 22 41
c45 89 18 205 -61 259 -50 35 -151 44 -208 19z m156 -119 c37 -37 42 -62 20
-105 -36 -69 -146 -64 -176 8 -41 101 78 175 156 97z m318 -412 c21 -8 21 -43
0 -51 -8 -3 -23 1 -31 10 -13 13 -14 19 -3 31 14 18 13 18 34 10z"/>
<path d="M3534 1350 c-28 -11 -54 -48 -54 -78 0 -35 43 -72 83 -72 82 0 109
108 36 145 -32 17 -36 17 -65 5z"/>
<path d="M892 1068 c3 -306 6 -321 59 -360 31 -23 132 -35 170 -20 26 10 26
13 18 58 -11 56 -24 74 -53 74 -43 0 -46 15 -46 200 0 98 -3 211 -6 253 l-7
77 -69 0 -69 0 3 -282z"/>
<path d="M1670 1020 l0 -330 74 0 74 0 4 153 c3 162 8 180 53 197 29 11 75 -9
86 -37 5 -13 9 -89 9 -169 l0 -144 76 0 76 0 -4 183 c-3 169 -5 185 -26 219
-44 71 -144 97 -224 58 -23 -11 -43 -20 -45 -20 -2 0 -3 50 -3 110 l0 110 -75
0 -75 0 0 -330z"/>
<path d="M436 1278 c-8 -13 -59 -142 -114 -288 -55 -146 -103 -273 -107 -282
-6 -16 1 -18 73 -18 l81 0 19 53 20 52 124 3 124 3 18 -56 19 -55 79 0 c43 0
78 4 78 9 0 6 -40 117 -89 248 -49 131 -98 263 -109 293 l-20 55 -90 3 c-85 3
-92 1 -106 -20z m164 -340 c0 -4 -31 -8 -70 -8 -38 0 -70 2 -70 4 0 2 16 48
35 102 19 54 35 100 36 103 1 8 69 -191 69 -201z"/>
<path d="M4160 1220 l0 -60 -35 0 -35 0 0 -60 0 -60 35 0 35 0 0 -127 c0 -109
3 -133 20 -160 25 -42 57 -62 111 -69 44 -6 123 9 133 25 3 5 -3 30 -15 55
-15 35 -25 46 -42 46 -13 0 -33 7 -45 16 -20 14 -22 23 -22 115 l0 99 50 0 50
0 0 60 0 60 -45 0 -44 0 -3 58 -3 57 -72 3 -73 3 0 -61z"/>
<path d="M1320 1161 c-110 -34 -173 -120 -173 -236 1 -75 31 -143 84 -189 108
-92 299 -70 370 43 l29 45 -26 14 c-14 7 -43 20 -65 27 -37 13 -40 13 -54 -9
-41 -62 -140 -60 -178 4 -41 68 -4 162 68 176 37 7 66 -5 107 -44 l27 -25 48
18 c70 26 75 32 58 65 -45 86 -193 142 -295 111z"/>
<path d="M2339 1157 c-97 -36 -149 -109 -157 -217 -4 -61 -1 -76 22 -125 32
-64 87 -107 160 -126 100 -25 216 11 263 80 l24 35 -46 28 c-53 33 -57 34 -80
8 -28 -31 -77 -43 -123 -30 -37 9 -72 44 -72 70 0 6 58 10 165 10 l165 0 0 49
c0 134 -82 220 -218 228 -41 2 -81 -2 -103 -10z m159 -134 c12 -13 22 -28 22
-34 0 -5 -42 -9 -95 -9 -52 0 -95 3 -95 8 0 20 34 53 63 61 44 12 78 4 105
-26z"/>
<path d="M2897 1151 c-32 -16 -39 -17 -44 -5 -4 10 -23 14 -69 14 l-64 0 0
-235 0 -235 75 0 75 0 0 164 c0 159 1 165 22 180 29 20 52 20 72 0 13 -13 16
-44 16 -180 l0 -164 75 0 75 0 0 144 c0 80 4 156 10 170 21 56 90 59 109 5 6
-18 11 -97 11 -175 l0 -144 70 0 70 0 0 188 c0 182 -1 188 -24 223 -30 44 -80
69 -135 69 -46 0 -115 -30 -129 -57 -9 -15 -11 -14 -20 4 -27 50 -129 68 -195
34z"/>
<path d="M3782 1149 c-74 -37 -103 -129 -62 -196 22 -36 68 -63 153 -87 49
-14 57 -20 57 -41 0 -46 -72 -45 -116 2 l-25 26 -47 -19 c-26 -11 -48 -27 -50
-36 -6 -29 63 -94 113 -108 98 -27 217 6 250 70 20 39 19 110 -2 140 -26 38
-42 48 -115 71 -76 24 -108 50 -88 74 7 8 22 15 34 15 27 0 66 -27 66 -46 0
-18 6 -18 63 2 53 18 58 32 27 81 -43 71 -169 96 -258 52z"/>
<path d="M3503 1153 c-10 -3 -13 -60 -13 -234 l0 -229 75 0 75 0 0 235 0 235
-62 -1 c-35 0 -69 -3 -75 -6z"/>
</g>
</svg>
